<?xml version="1.0" standalone="no"?>
<!DOCTYPE svg PUBLIC "-//W3C//DTD SVG 20010904//EN"
 "http://www.w3.org/TR/2001/REC-SVG-20010904/DTD/svg10.dtd">
<svg version="1.0" xmlns="http://www.w3.org/2000/svg"
 width="624.000000pt" height="200.000000pt" viewBox="0 0 624.000000 200.000000"
 preserveAspectRatio="xMidYMid meet">

<g transform="translate(0.000000,200.000000) scale(0.100000,-0.100000)"
fill="#000000" stroke="none">
<path d="M3060 1694 c0 -42 2 -45 16 -33 14 12 16 11 12 -6 -2 -11 -9 -19 -14
-18 -13 2 -12 -80 1 -89 6 -5 4 -8 -4 -8 -11 0 -9 -4 5 -15 14 -11 14 -13 3
-9 -13 4 -16 -1 -15 -25 l1 -31 55 53 c30 28 57 53 60 55 2 2 -8 1 -23 -2 -18
-3 -25 -1 -21 6 4 7 2 8 -4 4 -7 -4 -9 1 -7 15 4 17 2 20 -7 11 -16 -16 -31
-15 -21 1 12 19 12 38 1 31 -7 -4 -8 -2 -4 4 6 11 101 -74 101 -90 0 -5 3 -7
6 -5 12 4 49 -35 43 -45 -3 -5 -11 -5 -18 1 -7 6 -17 7 -21 3 -5 -4 -5 -1 0 7
5 9 4 12 -2 8 -6 -4 -17 1 -24 10 -12 14 -12 16 0 8 10 -6 12 -4 6 4 -9 15
-122 -91 -122 -115 0 -10 6 -9 24 8 32 30 29 10 -4 -25 -16 -17 -22 -27 -15
-23 6 4 12 2 12 -4 0 -6 14 5 31 25 17 19 35 33 39 30 5 -3 11 -1 14 4 8 12
30 8 51 -9 19 -16 68 -22 59 -8 -3 4 -9 6 -13 4 -4 -3 -21 8 -36 24 -22 23
-32 27 -42 19 -7 -6 -13 -8 -13 -3 0 4 -11 -3 -25 -16 -14 -13 -25 -19 -25
-13 0 5 11 20 25 33 14 13 25 20 25 16 0 -5 6 -3 14 3 10 8 16 9 21 1 3 -6 10
-8 15 -5 9 5 28 -14 29 -30 1 -5 6 -11 11 -11 6 -1 11 -2 13 -4 9 -7 36 -6 31
1 -3 5 -10 6 -16 3 -7 -5 -8 -2 -3 6 5 8 4 11 -2 7 -6 -4 -18 2 -28 13 -27 30
-4 24 34 -8 l34 -28 -17 -32 -17 -33 63 3 63 3 3 183 2 182 -180 0 -180 0 0
-46z m30 -89 c-13 -16 3 -30 22 -19 6 4 8 3 5 -3 -8 -12 17 -36 26 -26 4 3 7
4 7 2 0 -3 -17 -22 -38 -42 -24 -24 -39 -32 -39 -23 0 8 3 15 6 14 17 -2 21 3
14 15 -8 14 -13 31 -17 67 -3 30 2 42 15 34 6 -4 6 -11 -1 -19z m96 -102 c-2
-3 -7 -4 -11 -3 -4 1 -20 -11 -36 -26 -16 -15 -29 -24 -29 -19 0 4 -10 0 -22
-11 -13 -10 -1 5 26 34 39 40 53 49 63 40 7 -6 11 -13 9 -15z m35 -60 l24 -28
-26 23 c-14 12 -29 19 -34 15 -4 -5 -5 -2 -1 5 9 16 9 16 37 -15z m-101 -16
c0 -2 -10 -12 -22 -23 l-23 -19 19 23 c18 21 26 27 26 19z"/>
<path d="M3099 1569 c-6 -31 -6 -40 1 -44 4 -3 13 1 19 9 9 10 8 16 -4 26 -8
7 -15 11 -16 9z m16 -18 c3 -5 2 -12 -3 -15 -5 -3 -9 1 -9 9 0 17 3 19 12 6z"/>
<path d="M3134 1488 l-29 -33 31 28 c17 15 34 24 39 20 4 -5 5 -2 1 5 -9 16
-8 17 -42 -20z"/>
<path d="M3750 1720 c0 -6 -60 -10 -160 -10 l-160 0 0 -180 0 -180 190 0 190
0 0 -180 0 -180 175 0 175 0 0 180 0 180 -25 0 -25 0 0 190 0 190 -180 0
c-113 0 -180 -4 -180 -10z"/>
<path d="M2670 1554 c0 -140 2 -156 16 -150 9 4 84 47 166 97 82 50 151 89
154 87 2 -3 -72 -53 -166 -113 -94 -59 -169 -109 -167 -112 3 -2 37 17 77 42
39 26 74 45 76 42 3 -3 -24 -24 -60 -48 -36 -24 -63 -45 -61 -47 2 -3 45 23
95 58 50 34 94 60 96 57 3 -3 -29 -29 -71 -57 -41 -29 -73 -55 -70 -58 3 -3
13 2 23 11 24 22 38 22 21 0 -12 -15 -12 -16 1 -8 8 5 29 19 46 32 43 32 56
29 19 -5 -17 -15 -26 -24 -21 -19 14 10 28 9 21 -3 -11 -18 11 -10 30 10 25
28 43 25 19 -2 -19 -23 -19 -23 2 -5 11 9 24 17 29 17 4 0 1 -8 -6 -17 -7 -10
1 -5 19 11 17 16 30 32 27 34 -3 3 0 11 6 19 6 7 8 13 4 13 -4 0 -1 7 6 16 13
16 22 71 10 58 -3 -3 -6 -11 -6 -17 0 -5 -5 -12 -12 -14 -9 -3 -11 24 -3 35 2
1 3 7 4 12 0 6 8 15 16 20 12 8 12 10 1 10 -9 0 -10 4 -4 13 6 6 11 40 12 75
l2 62 -175 0 -176 0 0 -156z m330 2 c0 -2 -22 -18 -50 -36 -51 -33 -63 -44
-33 -33 11 4 14 3 9 -6 -5 -7 -15 -10 -23 -6 -9 3 -27 -2 -40 -11 -14 -8 -27
-14 -29 -11 -3 2 30 27 73 55 73 47 93 58 93 48z m-30 -46 c-14 -11 -29 -20
-35 -20 -5 0 1 9 15 20 14 11 30 20 35 20 6 0 -1 -9 -15 -20z m8 -22 c-2 -7 5
-12 15 -12 17 2 17 1 1 -17 -9 -10 -14 -19 -9 -19 4 0 2 -7 -5 -15 -7 -8 -9
-15 -5 -15 4 0 2 -7 -5 -15 -9 -11 -17 -12 -32 -4 -15 8 -24 7 -39 -7 -10 -9
-21 -15 -24 -12 -6 5 58 58 71 58 3 0 0 -8 -7 -17 -11 -13 -8 -13 13 2 14 11
22 22 17 23 -6 3 -5 9 1 17 8 10 8 15 0 20 -14 9 -42 -14 -33 -28 3 -6 1 -7
-6 -3 -6 4 -33 -9 -62 -29 -27 -21 -52 -35 -55 -32 -5 5 145 115 159 116 4 1
6 -5 5 -11z m-13 -28 c-3 -5 -11 -10 -16 -10 -6 0 -7 5 -4 10 3 6 11 10 16 10
6 0 7 -4 4 -10z m-45 -35 c-7 -8 -17 -15 -22 -15 -6 0 -5 7 2 15 7 8 17 15 22
15 6 0 5 -7 -2 -15z"/>
<path d="M3130 1596 c0 -2 8 -10 18 -17 15 -13 16 -12 3 4 -13 16 -21 21 -21
13z"/>
<path d="M3210 1526 c0 -2 8 -10 18 -17 15 -13 16 -12 3 4 -13 16 -21 21 -21
13z"/>
<path d="M3164 1419 c-3 -5 -9 -7 -13 -4 -5 2 -17 -5 -27 -18 l-19 -22 23 19
c12 11 22 16 22 11 0 -4 6 -2 13 4 11 8 18 7 31 -7 9 -11 28 -18 44 -17 15 1
30 -3 33 -8 3 -5 9 -2 12 6 4 10 -2 13 -21 12 -15 -1 -35 5 -45 14 -22 18 -45
23 -53 10z m47 -16 c13 -16 12 -17 -3 -4 -17 13 -22 21 -14 21 2 0 10 -8 17
-17z"/>
<path d="M2979 1373 l-24 -28 28 24 c25 23 32 31 24 31 -2 0 -14 -12 -28 -27z"/>
<path d="M3164 1388 c-4 -7 -4 -10 1 -6 4 4 15 2 24 -5 14 -11 14 -10 2 6 -16
20 -18 21 -27 5z"/>
<path d="M2999 1363 c-13 -16 -12 -17 4 -4 16 13 21 21 13 21 -2 0 -10 -8 -17
-17z"/>
<path d="M2710 1320 c-9 -6 -10 -10 -3 -10 6 0 15 5 18 10 8 12 4 12 -15 0z"/>
<path d="M2730 1305 c-19 -14 -30 -25 -25 -25 6 0 24 11 40 25 39 31 30 31
-15 0z"/>
<path d="M2750 1290 c-30 -22 -51 -40 -46 -40 9 0 106 69 106 76 0 7 -3 5 -60
-36z"/>
<path d="M2796 1289 c-27 -22 -61 -49 -75 -60 -14 -11 -19 -17 -11 -13 19 9
140 104 140 110 0 7 -3 5 -54 -37z"/>
<path d="M2805 1264 c-100 -81 -132 -114 -47 -49 70 54 140 114 132 114 -3 0
-41 -29 -85 -65z"/>
<path d="M2811 1238 c-61 -51 -109 -94 -106 -96 2 -2 50 35 107 84 131 111
123 104 116 104 -3 0 -56 -41 -117 -92z"/>
<path d="M2837 1226 c-126 -110 -152 -135 -127 -120 18 10 250 215 250 220 0
7 -4 4 -123 -100z"/>
<path d="M2840 1191 c-80 -76 -143 -141 -140 -145 3 -3 71 60 150 139 80 80
143 145 140 145 -3 0 -70 -63 -150 -139z"/>
<path d="M2995 1275 c-28 -30 -106 -113 -174 -185 -68 -71 -119 -130 -115
-130 5 0 71 68 148 151 76 82 141 148 143 145 3 -3 -52 -69 -122 -148 -161
-180 -159 -177 -153 -183 3 -3 83 86 178 197 95 112 161 192 147 179 -30 -27
-37 -19 -10 11 9 10 14 18 12 18 -3 0 -27 -25 -54 -55z"/>
<path d="M3135 1321 c-3 -6 -14 -8 -25 -6 -16 3 -60 -44 -203 -211 -100 -119
-184 -223 -186 -232 -2 -9 70 72 159 181 89 109 164 196 167 193 3 -2 -70 -97
-161 -211 -91 -113 -166 -211 -166 -218 0 -14 -10 -26 175 211 86 112 160 201
162 198 3 -2 -72 -106 -167 -230 -94 -125 -170 -231 -168 -235 2 -8 127 158
373 493 16 23 22 35 12 27 -9 -7 -17 -10 -17 -6 0 5 -9 0 -20 -10 -11 -10 -20
-14 -20 -8 0 5 9 18 20 28 11 10 20 15 20 10 0 -4 6 -2 13 4 8 6 16 9 19 6 3
-3 11 1 18 10 7 8 10 15 7 15 -3 0 -8 -4 -12 -9z m-55 -76 c-7 -9 -15 -13 -18
-10 -3 2 1 11 8 20 7 9 15 13 18 10 3 -2 -1 -11 -8 -20z"/>
<path d="M3234 1263 c-125 -233 -166 -307 -264 -471 -60 -101 -104 -182 -97
-179 6 2 57 82 112 178 l100 174 102 -3 103 -3 45 42 45 42 0 143 0 144 -55 0
-55 0 -36 -67z"/>
<path d="M3204 1312 c4 -3 14 -7 22 -8 9 -1 13 0 10 4 -4 3 -14 7 -22 8 -9 1
-13 0 -10 -4z"/>
<path d="M3410 1189 c0 -101 3 -129 13 -123 6 4 45 32 85 62 l73 55 32 -29
c18 -16 58 -53 90 -83 l57 -55 0 152 0 152 -175 0 -175 0 0 -131z"/>
<path d="M3187 1294 c-3 -3 -3 -13 0 -22 4 -10 2 -13 -5 -8 -6 3 -13 3 -16 -2
-2 -4 6 -8 19 -8 16 0 21 4 17 15 -3 9 -1 12 6 7 6 -3 14 -1 18 6 4 7 4 10 -1
6 -4 -4 -13 -3 -20 2 -7 5 -14 7 -18 4z"/>
<path d="M2836 1151 c-77 -77 -138 -142 -135 -145 3 -3 70 60 149 139 80 80
141 145 136 145 -4 0 -72 -63 -150 -139z"/>
<path d="M3129 1243 c-13 -16 -12 -17 4 -4 9 7 17 15 17 17 0 8 -8 3 -21 -13z"/>
<path d="M3089 1223 c-13 -16 -12 -17 4 -4 9 7 17 15 17 17 0 8 -8 3 -21 -13z"/>
<path d="M3143 1226 c-4 -5 -1 -6 7 -1 10 6 12 4 7 -7 -7 -21 22 -17 34 3 6
12 2 15 -17 15 -14 0 -28 -4 -31 -10z"/>
<path d="M2900 964 c-95 -130 -175 -246 -178 -257 -7 -30 -16 -42 173 228 92
132 172 246 178 253 5 6 7 12 5 12 -3 0 -83 -106 -178 -236z"/>
<path d="M3065 1148 c-16 -24 -22 -38 -14 -31 15 12 53 73 46 73 -2 0 -17 -19
-32 -42z"/>
<path d="M3133 1177 c-4 -6 -1 -7 7 -2 22 14 9 -10 -155 -291 -86 -146 -154
-268 -151 -272 8 -8 1 -20 143 233 72 127 144 255 161 286 25 43 29 56 17 56
-9 0 -19 -5 -22 -10z"/>
<path d="M2927 900 c-103 -154 -187 -282 -187 -285 0 -25 41 31 180 250 90
140 165 253 168 250 4 -4 -128 -220 -276 -454 -19 -29 -28 -51 -21 -49 8 3 83
119 167 259 187 310 177 293 161 284 -9 -6 -11 -3 -6 8 3 10 5 17 3 17 -1 0
-87 -126 -189 -280z m175 228 c-7 -7 -12 -8 -12 -2 0 14 12 26 19 19 2 -3 -1
-11 -7 -17z"/>
<path d="M2934 958 c-54 -79 -124 -181 -156 -226 -33 -46 -58 -88 -56 -94 2
-5 35 37 73 94 178 267 244 368 240 368 -2 0 -48 -64 -101 -142z"/>
<path d="M3810 948 c0 -7 12 -82 27 -165 22 -126 30 -153 44 -153 12 0 19 -12
23 -42 12 -77 13 -77 130 -7 l106 64 0 157 0 158 -165 0 c-125 0 -165 -3 -165
-12z"/>
<path d="M4160 802 l0 -158 45 -22 c25 -12 48 -22 50 -22 3 0 5 81 5 180 l0
180 -50 0 -50 0 0 -158z"/>
<path d="M3025 828 c-38 -67 -82 -143 -98 -170 -15 -26 -23 -48 -18 -48 6 0
37 48 70 107 44 78 62 103 66 90 5 -10 -10 -48 -39 -102 -25 -47 -46 -87 -46
-90 0 -4 19 -5 42 -3 35 3 43 7 49 29 19 74 63 146 112 187 29 23 72 60 97 82
l45 39 -105 1 -105 0 -70 -122z"/>
<path d="M3230 693 c-52 -41 -96 -79 -98 -83 -2 -4 36 -7 84 -6 l87 1 18 75
c21 87 21 90 12 89 -5 0 -51 -34 -103 -76z"/>
<path d="M4155 618 c-3 -7 19 -87 49 -178 l54 -165 1 69 c2 117 -81 336 -104
274z"/>
<path d="M4097 587 c-16 -11 -13 -24 34 -164 46 -139 53 -153 74 -153 23 0 23
1 -30 161 -30 89 -56 163 -58 165 -2 2 -11 -2 -20 -9z"/>
<path d="M2710 559 c-18 -33 -7 -41 12 -9 9 17 13 30 8 30 -5 0 -14 -9 -20
-21z"/>
<path d="M2732 524 c-19 -30 -32 -60 -30 -66 2 -6 20 15 39 48 42 73 43 74 32
74 -4 0 -23 -25 -41 -56z"/>
<path d="M2755 491 c-31 -50 -55 -96 -53 -102 2 -7 30 32 62 85 32 54 56 100
53 102 -2 3 -30 -36 -62 -85z"/>
<path d="M2776 453 c-42 -70 -76 -137 -76 -148 0 -19 0 -19 13 0 32 47 148
267 144 272 -3 2 -39 -53 -81 -124z"/>
<path d="M2810 433 c-46 -82 -85 -151 -87 -155 -2 -5 2 -8 9 -8 8 0 26 24 40
53 15 28 52 98 82 155 83 156 49 121 -44 -45z"/>
<path d="M2865 430 c-41 -82 -75 -152 -75 -155 0 -3 96 -5 214 -5 196 0 215 2
220 18 5 19 56 277 56 286 0 3 -46 6 -102 6 -97 0 -103 -1 -130 -27 l-28 -27
0 27 c0 25 -3 27 -40 27 l-40 0 -75 -150z"/>
<path d="M4028 550 c-15 -9 -13 -19 13 -107 16 -54 34 -115 40 -135 8 -31 14
-38 35 -38 17 0 24 5 21 13 -2 6 -22 72 -43 144 -22 73 -41 133 -44 133 -3 0
-12 -5 -22 -10z"/>
<path d="M4241 540 c0 -8 4 -24 9 -35 5 -13 9 -14 9 -5 0 8 -4 24 -9 35 -5 13
-9 14 -9 5z"/>
<path d="M3966 507 c-17 -13 -17 -17 4 -93 37 -137 40 -144 61 -144 10 0 19 3
19 8 0 9 -61 236 -64 239 -1 2 -10 -3 -20 -10z"/>
</g>
</svg>
